solid OpenSCAD_Model
  facet normal -1 0 0
    outer loop
      vertex 0 2 0
      vertex 0 2.5 5
      vertex 0 2.5 0
    endloop
  endfacet
  facet normal -1 -0 0
    outer loop
      vertex 0 2.5 5
      vertex 0 2 0
      vertex 0 2 5
    endloop
  endfacet
  facet normal 0 0 1
    outer loop
      vertex 2.5 2.5 5
      vertex 2 2 5
      vertex 2.5 0 5
    endloop
  endfacet
  facet normal -0 0 1
    outer loop
      vertex 0 2.5 5
      vertex 2 2 5
      vertex 2.5 2.5 5
    endloop
  endfacet
  facet normal 0 0 1
    outer loop
      vertex 2 2 5
      vertex 0 2.5 5
      vertex 0 2 5
    endloop
  endfacet
  facet normal 0 0 1
    outer loop
      vertex 2.5 0 5
      vertex 2 2 5
      vertex 2 0 5
    endloop
  endfacet
  facet normal 1 -0 0
    outer loop
      vertex 2.5 0 5
      vertex 2.5 2.5 0
      vertex 2.5 2.5 5
    endloop
  endfacet
  facet normal 1 0 0
    outer loop
      vertex 2.5 2.5 0
      vertex 2.5 0 5
      vertex 2.5 0 0
    endloop
  endfacet
  facet normal 0 1 -0
    outer loop
      vertex 2.5 2.5 0
      vertex 0 2.5 5
      vertex 2.5 2.5 5
    endloop
  endfacet
  facet normal 0 1 0
    outer loop
      vertex 0 2.5 5
      vertex 2.5 2.5 0
      vertex 0 2.5 0
    endloop
  endfacet
  facet normal 0 0 -1
    outer loop
      vertex 2 2 0
      vertex 2.5 0 0
      vertex 2 0 0
    endloop
  endfacet
  facet normal 0 0 -1
    outer loop
      vertex 2.5 0 0
      vertex 2 2 0
      vertex 2.5 2.5 0
    endloop
  endfacet
  facet normal 0 0 -1
    outer loop
      vertex 0 2.5 0
      vertex 2 2 0
      vertex 0 2 0
    endloop
  endfacet
  facet normal 0 0 -1
    outer loop
      vertex 2 2 0
      vertex 0 2.5 0
      vertex 2.5 2.5 0
    endloop
  endfacet
  facet normal 0 -1 0
    outer loop
      vertex 2 0 0
      vertex 2.5 0 5
      vertex 2 0 5
    endloop
  endfacet
  facet normal 0 -1 -0
    outer loop
      vertex 2.5 0 5
      vertex 2 0 0
      vertex 2.5 0 0
    endloop
  endfacet
  facet normal -1 0 0
    outer loop
      vertex 2 0 0
      vertex 2 2 5
      vertex 2 2 0
    endloop
  endfacet
  facet normal -1 -0 0
    outer loop
      vertex 2 2 5
      vertex 2 0 0
      vertex 2 0 5
    endloop
  endfacet
  facet normal 0 -1 0
    outer loop
      vertex 0 2 0
      vertex 2 2 5
      vertex 0 2 5
    endloop
  endfacet
  facet normal 0 -1 -0
    outer loop
      vertex 2 2 5
      vertex 0 2 0
      vertex 2 2 0
    endloop
  endfacet
  facet normal -1 0 0
    outer loop
      vertex 0 4.4 0
      vertex 0 5 5
      vertex 0 5 0
    endloop
  endfacet
  facet normal -1 -0 0
    outer loop
      vertex 0 5 5
      vertex 0 4.4 0
      vertex 0 4.4 5
    endloop
  endfacet
  facet normal 0 0 1
    outer loop
      vertex 5 5 5
      vertex 4.4 4.4 5
      vertex 5 0 5
    endloop
  endfacet
  facet normal -0 0 1
    outer loop
      vertex 0 5 5
      vertex 4.4 4.4 5
      vertex 5 5 5
    endloop
  endfacet
  facet normal 0 0 1
    outer loop
      vertex 4.4 4.4 5
      vertex 0 5 5
      vertex 0 4.4 5
    endloop
  endfacet
  facet normal 0 0 1
    outer loop
      vertex 5 0 5
      vertex 4.4 4.4 5
      vertex 4.4 0 5
    endloop
  endfacet
  facet normal 1 -0 0
    outer loop
      vertex 5 0 5
      vertex 5 5 0
      vertex 5 5 5
    endloop
  endfacet
  facet normal 1 0 0
    outer loop
      vertex 5 5 0
      vertex 5 0 5
      vertex 5 0 0
    endloop
  endfacet
  facet normal 0 0 -1
    outer loop
      vertex 4.4 4.4 0
      vertex 5 0 0
      vertex 4.4 0 0
    endloop
  endfacet
  facet normal 0 0 -1
    outer loop
      vertex 5 0 0
      vertex 4.4 4.4 0
      vertex 5 5 0
    endloop
  endfacet
  facet normal 0 0 -1
    outer loop
      vertex 0 5 0
      vertex 4.4 4.4 0
      vertex 0 4.4 0
    endloop
  endfacet
  facet normal 0 0 -1
    outer loop
      vertex 4.4 4.4 0
      vertex 0 5 0
      vertex 5 5 0
    endloop
  endfacet
  facet normal 0 -1 0
    outer loop
      vertex 4.4 0 0
      vertex 5 0 5
      vertex 4.4 0 5
    endloop
  endfacet
  facet normal 0 -1 -0
    outer loop
      vertex 5 0 5
      vertex 4.4 0 0
      vertex 5 0 0
    endloop
  endfacet
  facet normal 0 1 -0
    outer loop
      vertex 5 5 0
      vertex 0 5 5
      vertex 5 5 5
    endloop
  endfacet
  facet normal 0 1 0
    outer loop
      vertex 0 5 5
      vertex 5 5 0
      vertex 0 5 0
    endloop
  endfacet
  facet normal -1 0 0
    outer loop
      vertex 4.4 0 0
      vertex 4.4 4.4 5
      vertex 4.4 4.4 0
    endloop
  endfacet
  facet normal -1 -0 0
    outer loop
      vertex 4.4 4.4 5
      vertex 4.4 0 0
      vertex 4.4 0 5
    endloop
  endfacet
  facet normal 0 -1 0
    outer loop
      vertex 0 4.4 0
      vertex 4.4 4.4 5
      vertex 0 4.4 5
    endloop
  endfacet
  facet normal 0 -1 -0
    outer loop
      vertex 4.4 4.4 5
      vertex 0 4.4 0
      vertex 4.4 4.4 0
    endloop
  endfacet
  facet normal -1 0 0
    outer loop
      vertex 0 6.8 0
      vertex 0 7.5 5
      vertex 0 7.5 0
    endloop
  endfacet
  facet normal -1 -0 0
    outer loop
      vertex 0 7.5 5
      vertex 0 6.8 0
      vertex 0 6.8 5
    endloop
  endfacet
  facet normal 0 0 1
    outer loop
      vertex 7.5 7.5 5
      vertex 6.8 6.8 5
      vertex 7.5 0 5
    endloop
  endfacet
  facet normal -0 0 1
    outer loop
      vertex 0 7.5 5
      vertex 6.8 6.8 5
      vertex 7.5 7.5 5
    endloop
  endfacet
  facet normal 0 0 1
    outer loop
      vertex 6.8 6.8 5
      vertex 0 7.5 5
      vertex 0 6.8 5
    endloop
  endfacet
  facet normal 0 0 1
    outer loop
      vertex 7.5 0 5
      vertex 6.8 6.8 5
      vertex 6.8 0 5
    endloop
  endfacet
  facet normal 1 -0 0
    outer loop
      vertex 7.5 0 5
      vertex 7.5 7.5 0
      vertex 7.5 7.5 5
    endloop
  endfacet
  facet normal 1 0 0
    outer loop
      vertex 7.5 7.5 0
      vertex 7.5 0 5
      vertex 7.5 0 0
    endloop
  endfacet
  facet normal 0 1 -0
    outer loop
      vertex 7.5 7.5 0
      vertex 0 7.5 5
      vertex 7.5 7.5 5
    endloop
  endfacet
  facet normal 0 1 0
    outer loop
      vertex 0 7.5 5
      vertex 7.5 7.5 0
      vertex 0 7.5 0
    endloop
  endfacet
  facet normal 0 0 -1
    outer loop
      vertex 6.8 6.8 0
      vertex 7.5 0 0
      vertex 6.8 0 0
    endloop
  endfacet
  facet normal 0 0 -1
    outer loop
      vertex 7.5 0 0
      vertex 6.8 6.8 0
      vertex 7.5 7.5 0
    endloop
  endfacet
  facet normal 0 0 -1
    outer loop
      vertex 0 7.5 0
      vertex 6.8 6.8 0
      vertex 0 6.8 0
    endloop
  endfacet
  facet normal 0 0 -1
    outer loop
      vertex 6.8 6.8 0
      vertex 0 7.5 0
      vertex 7.5 7.5 0
    endloop
  endfacet
  facet normal 0 -1 0
    outer loop
      vertex 6.8 0 0
      vertex 7.5 0 5
      vertex 6.8 0 5
    endloop
  endfacet
  facet normal 0 -1 -0
    outer loop
      vertex 7.5 0 5
      vertex 6.8 0 0
      vertex 7.5 0 0
    endloop
  endfacet
  facet normal -1 0 0
    outer loop
      vertex 6.8 0 0
      vertex 6.8 6.8 5
      vertex 6.8 6.8 0
    endloop
  endfacet
  facet normal -1 -0 0
    outer loop
      vertex 6.8 6.8 5
      vertex 6.8 0 0
      vertex 6.8 0 5
    endloop
  endfacet
  facet normal 0 -1 0
    outer loop
      vertex 0 6.8 0
      vertex 6.8 6.8 5
      vertex 0 6.8 5
    endloop
  endfacet
  facet normal 0 -1 -0
    outer loop
      vertex 6.8 6.8 5
      vertex 0 6.8 0
      vertex 6.8 6.8 0
    endloop
  endfacet
  facet normal -1 0 0
    outer loop
      vertex 0 9.2 0
      vertex 0 10 5
      vertex 0 10 0
    endloop
  endfacet
  facet normal -1 -0 0
    outer loop
      vertex 0 10 5
      vertex 0 9.2 0
      vertex 0 9.2 5
    endloop
  endfacet
  facet normal 0 0 1
    outer loop
      vertex 10 10 5
      vertex 9.2 9.2 5
      vertex 10 0 5
    endloop
  endfacet
  facet normal -0 0 1
    outer loop
      vertex 0 10 5
      vertex 9.2 9.2 5
      vertex 10 10 5
    endloop
  endfacet
  facet normal 0 0 1
    outer loop
      vertex 9.2 9.2 5
      vertex 0 10 5
      vertex 0 9.2 5
    endloop
  endfacet
  facet normal 0 0 1
    outer loop
      vertex 10 0 5
      vertex 9.2 9.2 5
      vertex 9.2 0 5
    endloop
  endfacet
  facet normal 1 -0 0
    outer loop
      vertex 10 0 5
      vertex 10 10 0
      vertex 10 10 5
    endloop
  endfacet
  facet normal 1 0 0
    outer loop
      vertex 10 10 0
      vertex 10 0 5
      vertex 10 0 0
    endloop
  endfacet
  facet normal 0 0 -1
    outer loop
      vertex 9.2 9.2 0
      vertex 10 0 0
      vertex 9.2 0 0
    endloop
  endfacet
  facet normal 0 0 -1
    outer loop
      vertex 10 0 0
      vertex 9.2 9.2 0
      vertex 10 10 0
    endloop
  endfacet
  facet normal 0 0 -1
    outer loop
      vertex 0 10 0
      vertex 9.2 9.2 0
      vertex 0 9.2 0
    endloop
  endfacet
  facet normal 0 0 -1
    outer loop
      vertex 9.2 9.2 0
      vertex 0 10 0
      vertex 10 10 0
    endloop
  endfacet
  facet normal 0 -1 0
    outer loop
      vertex 9.2 0 0
      vertex 10 0 5
      vertex 9.2 0 5
    endloop
  endfacet
  facet normal 0 -1 -0
    outer loop
      vertex 10 0 5
      vertex 9.2 0 0
      vertex 10 0 0
    endloop
  endfacet
  facet normal 0 1 -0
    outer loop
      vertex 10 10 0
      vertex 0 10 5
      vertex 10 10 5
    endloop
  endfacet
  facet normal 0 1 0
    outer loop
      vertex 0 10 5
      vertex 10 10 0
      vertex 0 10 0
    endloop
  endfacet
  facet normal -1 0 0
    outer loop
      vertex 9.2 0 0
      vertex 9.2 9.2 5
      vertex 9.2 9.2 0
    endloop
  endfacet
  facet normal -1 -0 0
    outer loop
      vertex 9.2 9.2 5
      vertex 9.2 0 0
      vertex 9.2 0 5
    endloop
  endfacet
  facet normal 0 -1 0
    outer loop
      vertex 0 9.2 0
      vertex 9.2 9.2 5
      vertex 0 9.2 5
    endloop
  endfacet
  facet normal 0 -1 -0
    outer loop
      vertex 9.2 9.2 5
      vertex 0 9.2 0
      vertex 9.2 9.2 0
    endloop
  endfacet
  facet normal -1 0 0
    outer loop
      vertex 0 11.6 0
      vertex 0 12.5 5
      vertex 0 12.5 0
    endloop
  endfacet
  facet normal -1 -0 0
    outer loop
      vertex 0 12.5 5
      vertex 0 11.6 0
      vertex 0 11.6 5
    endloop
  endfacet
  facet normal 0 0 1
    outer loop
      vertex 12.5 12.5 5
      vertex 11.6 11.6 5
      vertex 12.5 0 5
    endloop
  endfacet
  facet normal -0 0 1
    outer loop
      vertex 0 12.5 5
      vertex 11.6 11.6 5
      vertex 12.5 12.5 5
    endloop
  endfacet
  facet normal 0 0 1
    outer loop
      vertex 11.6 11.6 5
      vertex 0 12.5 5
      vertex 0 11.6 5
    endloop
  endfacet
  facet normal 0 0 1
    outer loop
      vertex 12.5 0 5
      vertex 11.6 11.6 5
      vertex 11.6 0 5
    endloop
  endfacet
  facet normal 1 -0 0
    outer loop
      vertex 12.5 0 5
      vertex 12.5 12.5 0
      vertex 12.5 12.5 5
    endloop
  endfacet
  facet normal 1 0 0
    outer loop
      vertex 12.5 12.5 0
      vertex 12.5 0 5
      vertex 12.5 0 0
    endloop
  endfacet
  facet normal 0 0 -1
    outer loop
      vertex 11.6 11.6 0
      vertex 12.5 0 0
      vertex 11.6 0 0
    endloop
  endfacet
  facet normal 0 0 -1
    outer loop
      vertex 12.5 0 0
      vertex 11.6 11.6 0
      vertex 12.5 12.5 0
    endloop
  endfacet
  facet normal 0 0 -1
    outer loop
      vertex 0 12.5 0
      vertex 11.6 11.6 0
      vertex 0 11.6 0
    endloop
  endfacet
  facet normal 0 0 -1
    outer loop
      vertex 11.6 11.6 0
      vertex 0 12.5 0
      vertex 12.5 12.5 0
    endloop
  endfacet
  facet normal 0 -1 0
    outer loop
      vertex 11.6 0 0
      vertex 12.5 0 5
      vertex 11.6 0 5
    endloop
  endfacet
  facet normal 0 -1 -0
    outer loop
      vertex 12.5 0 5
      vertex 11.6 0 0
      vertex 12.5 0 0
    endloop
  endfacet
  facet normal 0 1 -0
    outer loop
      vertex 12.5 12.5 0
      vertex 0 12.5 5
      vertex 12.5 12.5 5
    endloop
  endfacet
  facet normal 0 1 0
    outer loop
      vertex 0 12.5 5
      vertex 12.5 12.5 0
      vertex 0 12.5 0
    endloop
  endfacet
  facet normal -1 0 0
    outer loop
      vertex 11.6 0 0
      vertex 11.6 11.6 5
      vertex 11.6 11.6 0
    endloop
  endfacet
  facet normal -1 -0 0
    outer loop
      vertex 11.6 11.6 5
      vertex 11.6 0 0
      vertex 11.6 0 5
    endloop
  endfacet
  facet normal 0 -1 0
    outer loop
      vertex 0 11.6 0
      vertex 11.6 11.6 5
      vertex 0 11.6 5
    endloop
  endfacet
  facet normal 0 -1 -0
    outer loop
      vertex 11.6 11.6 5
      vertex 0 11.6 0
      vertex 11.6 11.6 0
    endloop
  endfacet
  facet normal -1 0 0
    outer loop
      vertex 0 14 0
      vertex 0 15 5
      vertex 0 15 0
    endloop
  endfacet
  facet normal -1 -0 0
    outer loop
      vertex 0 15 5
      vertex 0 14 0
      vertex 0 14 5
    endloop
  endfacet
  facet normal 0 0 1
    outer loop
      vertex 15 15 5
      vertex 14 14 5
      vertex 15 0 5
    endloop
  endfacet
  facet normal -0 0 1
    outer loop
      vertex 0 15 5
      vertex 14 14 5
      vertex 15 15 5
    endloop
  endfacet
  facet normal 0 0 1
    outer loop
      vertex 14 14 5
      vertex 0 15 5
      vertex 0 14 5
    endloop
  endfacet
  facet normal 0 0 1
    outer loop
      vertex 15 0 5
      vertex 14 14 5
      vertex 14 0 5
    endloop
  endfacet
  facet normal 1 -0 0
    outer loop
      vertex 15 0 5
      vertex 15 15 0
      vertex 15 15 5
    endloop
  endfacet
  facet normal 1 0 0
    outer loop
      vertex 15 15 0
      vertex 15 0 5
      vertex 15 0 0
    endloop
  endfacet
  facet normal 0 0 -1
    outer loop
      vertex 14 14 0
      vertex 15 0 0
      vertex 14 0 0
    endloop
  endfacet
  facet normal 0 0 -1
    outer loop
      vertex 15 0 0
      vertex 14 14 0
      vertex 15 15 0
    endloop
  endfacet
  facet normal 0 0 -1
    outer loop
      vertex 0 15 0
      vertex 14 14 0
      vertex 0 14 0
    endloop
  endfacet
  facet normal 0 0 -1
    outer loop
      vertex 14 14 0
      vertex 0 15 0
      vertex 15 15 0
    endloop
  endfacet
  facet normal 0 -1 0
    outer loop
      vertex 14 0 0
      vertex 15 0 5
      vertex 14 0 5
    endloop
  endfacet
  facet normal 0 -1 -0
    outer loop
      vertex 15 0 5
      vertex 14 0 0
      vertex 15 0 0
    endloop
  endfacet
  facet normal 0 1 -0
    outer loop
      vertex 15 15 0
      vertex 0 15 5
      vertex 15 15 5
    endloop
  endfacet
  facet normal 0 1 0
    outer loop
      vertex 0 15 5
      vertex 15 15 0
      vertex 0 15 0
    endloop
  endfacet
  facet normal -1 0 0
    outer loop
      vertex 14 0 0
      vertex 14 14 5
      vertex 14 14 0
    endloop
  endfacet
  facet normal -1 -0 0
    outer loop
      vertex 14 14 5
      vertex 14 0 0
      vertex 14 0 5
    endloop
  endfacet
  facet normal 0 -1 0
    outer loop
      vertex 0 14 0
      vertex 14 14 5
      vertex 0 14 5
    endloop
  endfacet
  facet normal 0 -1 -0
    outer loop
      vertex 14 14 5
      vertex 0 14 0
      vertex 14 14 0
    endloop
  endfacet
  facet normal -1 0 0
    outer loop
      vertex 0 16.4 0
      vertex 0 17.5 5
      vertex 0 17.5 0
    endloop
  endfacet
  facet normal -1 -0 0
    outer loop
      vertex 0 17.5 5
      vertex 0 16.4 0
      vertex 0 16.4 5
    endloop
  endfacet
  facet normal 0 0 1
    outer loop
      vertex 17.5 17.5 5
      vertex 16.4 16.4 5
      vertex 17.5 0 5
    endloop
  endfacet
  facet normal -0 0 1
    outer loop
      vertex 0 17.5 5
      vertex 16.4 16.4 5
      vertex 17.5 17.5 5
    endloop
  endfacet
  facet normal 0 0 1
    outer loop
      vertex 16.4 16.4 5
      vertex 0 17.5 5
      vertex 0 16.4 5
    endloop
  endfacet
  facet normal 0 0 1
    outer loop
      vertex 17.5 0 5
      vertex 16.4 16.4 5
      vertex 16.4 0 5
    endloop
  endfacet
  facet normal 1 -0 0
    outer loop
      vertex 17.5 0 5
      vertex 17.5 17.5 0
      vertex 17.5 17.5 5
    endloop
  endfacet
  facet normal 1 0 0
    outer loop
      vertex 17.5 17.5 0
      vertex 17.5 0 5
      vertex 17.5 0 0
    endloop
  endfacet
  facet normal 0 0 -1
    outer loop
      vertex 16.4 16.4 0
      vertex 17.5 0 0
      vertex 16.4 0 0
    endloop
  endfacet
  facet normal 0 0 -1
    outer loop
      vertex 17.5 0 0
      vertex 16.4 16.4 0
      vertex 17.5 17.5 0
    endloop
  endfacet
  facet normal 0 0 -1
    outer loop
      vertex 0 17.5 0
      vertex 16.4 16.4 0
      vertex 0 16.4 0
    endloop
  endfacet
  facet normal 0 0 -1
    outer loop
      vertex 16.4 16.4 0
      vertex 0 17.5 0
      vertex 17.5 17.5 0
    endloop
  endfacet
  facet normal 0 -1 0
    outer loop
      vertex 16.4 0 0
      vertex 17.5 0 5
      vertex 16.4 0 5
    endloop
  endfacet
  facet normal 0 -1 -0
    outer loop
      vertex 17.5 0 5
      vertex 16.4 0 0
      vertex 17.5 0 0
    endloop
  endfacet
  facet normal 0 1 -0
    outer loop
      vertex 17.5 17.5 0
      vertex 0 17.5 5
      vertex 17.5 17.5 5
    endloop
  endfacet
  facet normal 0 1 0
    outer loop
      vertex 0 17.5 5
      vertex 17.5 17.5 0
      vertex 0 17.5 0
    endloop
  endfacet
  facet normal -1 0 0
    outer loop
      vertex 16.4 0 0
      vertex 16.4 16.4 5
      vertex 16.4 16.4 0
    endloop
  endfacet
  facet normal -1 -0 0
    outer loop
      vertex 16.4 16.4 5
      vertex 16.4 0 0
      vertex 16.4 0 5
    endloop
  endfacet
  facet normal 0 -1 0
    outer loop
      vertex 0 16.4 0
      vertex 16.4 16.4 5
      vertex 0 16.4 5
    endloop
  endfacet
  facet normal 0 -1 -0
    outer loop
      vertex 16.4 16.4 5
      vertex 0 16.4 0
      vertex 16.4 16.4 0
    endloop
  endfacet
  facet normal -1 0 0
    outer loop
      vertex 0 18.8 0
      vertex 0 20 5
      vertex 0 20 0
    endloop
  endfacet
  facet normal -1 -0 0
    outer loop
      vertex 0 20 5
      vertex 0 18.8 0
      vertex 0 18.8 5
    endloop
  endfacet
  facet normal 0 0 1
    outer loop
      vertex 20 20 5
      vertex 18.8 18.8 5
      vertex 20 0 5
    endloop
  endfacet
  facet normal -0 0 1
    outer loop
      vertex 0 20 5
      vertex 18.8 18.8 5
      vertex 20 20 5
    endloop
  endfacet
  facet normal 0 0 1
    outer loop
      vertex 18.8 18.8 5
      vertex 0 20 5
      vertex 0 18.8 5
    endloop
  endfacet
  facet normal 0 0 1
    outer loop
      vertex 20 0 5
      vertex 18.8 18.8 5
      vertex 18.8 0 5
    endloop
  endfacet
  facet normal 1 -0 0
    outer loop
      vertex 20 0 5
      vertex 20 20 0
      vertex 20 20 5
    endloop
  endfacet
  facet normal 1 0 0
    outer loop
      vertex 20 20 0
      vertex 20 0 5
      vertex 20 0 0
    endloop
  endfacet
  facet normal 0 1 -0
    outer loop
      vertex 20 20 0
      vertex 0 20 5
      vertex 20 20 5
    endloop
  endfacet
  facet normal 0 1 0
    outer loop
      vertex 0 20 5
      vertex 20 20 0
      vertex 0 20 0
    endloop
  endfacet
  facet normal 0 0 -1
    outer loop
      vertex 18.8 18.8 0
      vertex 20 0 0
      vertex 18.8 0 0
    endloop
  endfacet
  facet normal 0 0 -1
    outer loop
      vertex 20 0 0
      vertex 18.8 18.8 0
      vertex 20 20 0
    endloop
  endfacet
  facet normal 0 0 -1
    outer loop
      vertex 0 20 0
      vertex 18.8 18.8 0
      vertex 0 18.8 0
    endloop
  endfacet
  facet normal 0 0 -1
    outer loop
      vertex 18.8 18.8 0
      vertex 0 20 0
      vertex 20 20 0
    endloop
  endfacet
  facet normal 0 -1 0
    outer loop
      vertex 18.8 0 0
      vertex 20 0 5
      vertex 18.8 0 5
    endloop
  endfacet
  facet normal 0 -1 -0
    outer loop
      vertex 20 0 5
      vertex 18.8 0 0
      vertex 20 0 0
    endloop
  endfacet
  facet normal -1 0 0
    outer loop
      vertex 18.8 0 0
      vertex 18.8 18.8 5
      vertex 18.8 18.8 0
    endloop
  endfacet
  facet normal -1 -0 0
    outer loop
      vertex 18.8 18.8 5
      vertex 18.8 0 0
      vertex 18.8 0 5
    endloop
  endfacet
  facet normal 0 -1 0
    outer loop
      vertex 0 18.8 0
      vertex 18.8 18.8 5
      vertex 0 18.8 5
    endloop
  endfacet
  facet normal 0 -1 -0
    outer loop
      vertex 18.8 18.8 5
      vertex 0 18.8 0
      vertex 18.8 18.8 0
    endloop
  endfacet
  facet normal -1 0 0
    outer loop
      vertex 0 21.2 0
      vertex 0 22.5 5
      vertex 0 22.5 0
    endloop
  endfacet
  facet normal -1 -0 0
    outer loop
      vertex 0 22.5 5
      vertex 0 21.2 0
      vertex 0 21.2 5
    endloop
  endfacet
  facet normal 0 0 1
    outer loop
      vertex 22.5 22.5 5
      vertex 21.2 21.2 5
      vertex 22.5 0 5
    endloop
  endfacet
  facet normal -0 0 1
    outer loop
      vertex 0 22.5 5
      vertex 21.2 21.2 5
      vertex 22.5 22.5 5
    endloop
  endfacet
  facet normal 0 0 1
    outer loop
      vertex 21.2 21.2 5
      vertex 0 22.5 5
      vertex 0 21.2 5
    endloop
  endfacet
  facet normal 0 0 1
    outer loop
      vertex 22.5 0 5
      vertex 21.2 21.2 5
      vertex 21.2 0 5
    endloop
  endfacet
  facet normal 1 -0 0
    outer loop
      vertex 22.5 0 5
      vertex 22.5 22.5 0
      vertex 22.5 22.5 5
    endloop
  endfacet
  facet normal 1 0 0
    outer loop
      vertex 22.5 22.5 0
      vertex 22.5 0 5
      vertex 22.5 0 0
    endloop
  endfacet
  facet normal 0 0 -1
    outer loop
      vertex 21.2 21.2 0
      vertex 22.5 0 0
      vertex 21.2 0 0
    endloop
  endfacet
  facet normal 0 0 -1
    outer loop
      vertex 22.5 0 0
      vertex 21.2 21.2 0
      vertex 22.5 22.5 0
    endloop
  endfacet
  facet normal 0 0 -1
    outer loop
      vertex 0 22.5 0
      vertex 21.2 21.2 0
      vertex 0 21.2 0
    endloop
  endfacet
  facet normal 0 0 -1
    outer loop
      vertex 21.2 21.2 0
      vertex 0 22.5 0
      vertex 22.5 22.5 0
    endloop
  endfacet
  facet normal 0 -1 0
    outer loop
      vertex 21.2 0 0
      vertex 22.5 0 5
      vertex 21.2 0 5
    endloop
  endfacet
  facet normal 0 -1 -0
    outer loop
      vertex 22.5 0 5
      vertex 21.2 0 0
      vertex 22.5 0 0
    endloop
  endfacet
  facet normal 0 1 -0
    outer loop
      vertex 22.5 22.5 0
      vertex 0 22.5 5
      vertex 22.5 22.5 5
    endloop
  endfacet
  facet normal 0 1 0
    outer loop
      vertex 0 22.5 5
      vertex 22.5 22.5 0
      vertex 0 22.5 0
    endloop
  endfacet
  facet normal -1 0 0
    outer loop
      vertex 21.2 0 0
      vertex 21.2 21.2 5
      vertex 21.2 21.2 0
    endloop
  endfacet
  facet normal -1 -0 0
    outer loop
      vertex 21.2 21.2 5
      vertex 21.2 0 0
      vertex 21.2 0 5
    endloop
  endfacet
  facet normal 0 -1 0
    outer loop
      vertex 0 21.2 0
      vertex 21.2 21.2 5
      vertex 0 21.2 5
    endloop
  endfacet
  facet normal 0 -1 -0
    outer loop
      vertex 21.2 21.2 5
      vertex 0 21.2 0
      vertex 21.2 21.2 0
    endloop
  endfacet
  facet normal -1 0 0
    outer loop
      vertex 0 23.6 0
      vertex 0 25 5
      vertex 0 25 0
    endloop
  endfacet
  facet normal -1 -0 0
    outer loop
      vertex 0 25 5
      vertex 0 23.6 0
      vertex 0 23.6 5
    endloop
  endfacet
  facet normal 0 0 1
    outer loop
      vertex 25 25 5
      vertex 23.6 23.6 5
      vertex 25 0 5
    endloop
  endfacet
  facet normal -0 0 1
    outer loop
      vertex 0 25 5
      vertex 23.6 23.6 5
      vertex 25 25 5
    endloop
  endfacet
  facet normal 0 0 1
    outer loop
      vertex 23.6 23.6 5
      vertex 0 25 5
      vertex 0 23.6 5
    endloop
  endfacet
  facet normal 0 0 1
    outer loop
      vertex 25 0 5
      vertex 23.6 23.6 5
      vertex 23.6 0 5
    endloop
  endfacet
  facet normal 1 -0 0
    outer loop
      vertex 25 0 5
      vertex 25 25 0
      vertex 25 25 5
    endloop
  endfacet
  facet normal 1 0 0
    outer loop
      vertex 25 25 0
      vertex 25 0 5
      vertex 25 0 0
    endloop
  endfacet
  facet normal 0 1 -0
    outer loop
      vertex 25 25 0
      vertex 0 25 5
      vertex 25 25 5
    endloop
  endfacet
  facet normal 0 1 0
    outer loop
      vertex 0 25 5
      vertex 25 25 0
      vertex 0 25 0
    endloop
  endfacet
  facet normal 0 0 -1
    outer loop
      vertex 23.6 23.6 0
      vertex 25 0 0
      vertex 23.6 0 0
    endloop
  endfacet
  facet normal 0 0 -1
    outer loop
      vertex 25 0 0
      vertex 23.6 23.6 0
      vertex 25 25 0
    endloop
  endfacet
  facet normal 0 0 -1
    outer loop
      vertex 0 25 0
      vertex 23.6 23.6 0
      vertex 0 23.6 0
    endloop
  endfacet
  facet normal 0 0 -1
    outer loop
      vertex 23.6 23.6 0
      vertex 0 25 0
      vertex 25 25 0
    endloop
  endfacet
  facet normal 0 -1 0
    outer loop
      vertex 23.6 0 0
      vertex 25 0 5
      vertex 23.6 0 5
    endloop
  endfacet
  facet normal 0 -1 -0
    outer loop
      vertex 25 0 5
      vertex 23.6 0 0
      vertex 25 0 0
    endloop
  endfacet
  facet normal -1 0 0
    outer loop
      vertex 23.6 0 0
      vertex 23.6 23.6 5
      vertex 23.6 23.6 0
    endloop
  endfacet
  facet normal -1 -0 0
    outer loop
      vertex 23.6 23.6 5
      vertex 23.6 0 0
      vertex 23.6 0 5
    endloop
  endfacet
  facet normal 0 -1 0
    outer loop
      vertex 0 23.6 0
      vertex 23.6 23.6 5
      vertex 0 23.6 5
    endloop
  endfacet
  facet normal 0 -1 -0
    outer loop
      vertex 23.6 23.6 5
      vertex 0 23.6 0
      vertex 23.6 23.6 0
    endloop
  endfacet
endsolid OpenSCAD_Model
