solid OpenSCAD_Model
  facet normal 0 0 1
    outer loop
      vertex 3 2 5
      vertex 5 3 5
      vertex 3 3 5
    endloop
  endfacet
  facet normal -1 -0 0
    outer loop
      vertex 0 10 2
      vertex 0 0 0
      vertex 0 0 2
    endloop
  endfacet
  facet normal 1 0 0
    outer loop
      vertex 15 0 0
      vertex 15 10 0
      vertex 15 0 2
    endloop
  endfacet
  facet normal 0 -0.83205 0.5547
    outer loop
      vertex 15 0 2
      vertex 5 2 5
      vertex 0 0 2
    endloop
  endfacet
  facet normal 0.287348 0 0.957826
    outer loop
      vertex 15 10 2
      vertex 5 3 5
      vertex 15 0 2
    endloop
  endfacet
  facet normal -0.707107 0 0.707107
    outer loop
      vertex 3 2 5
      vertex 3 3 5
      vertex 0 0 2
    endloop
  endfacet
  facet normal 0 0 -1
    outer loop
      vertex 0 0 0
      vertex 15 10 0
      vertex 15 0 0
    endloop
  endfacet
  facet normal -1 0 0
    outer loop
      vertex 0 10 0
      vertex 0 0 0
      vertex 0 10 2
    endloop
  endfacet
  facet normal -0 0.393919 0.919145
    outer loop
      vertex 3 3 5
      vertex 5 3 5
      vertex 0 10 2
    endloop
  endfacet
  facet normal 0 -0.83205 0.5547
    outer loop
      vertex 0 0 2
      vertex 5 2 5
      vertex 3 2 5
    endloop
  endfacet
  facet normal 0 1 0
    outer loop
      vertex 0 10 2
      vertex 15 10 0
      vertex 0 10 0
    endloop
  endfacet
  facet normal 0 0 -1
    outer loop
      vertex 0 10 0
      vertex 15 10 0
      vertex 0 0 0
    endloop
  endfacet
  facet normal 0 -1 -0
    outer loop
      vertex 15 0 2
      vertex 0 0 0
      vertex 15 0 0
    endloop
  endfacet
  facet normal 0 -1 0
    outer loop
      vertex 0 0 2
      vertex 0 0 0
      vertex 15 0 2
    endloop
  endfacet
  facet normal 0 1 0
    outer loop
      vertex 15 10 2
      vertex 15 10 0
      vertex 0 10 2
    endloop
  endfacet
  facet normal 1 -0 0
    outer loop
      vertex 15 0 2
      vertex 15 10 0
      vertex 15 10 2
    endloop
  endfacet
  facet normal -0 0.393919 0.919145
    outer loop
      vertex 0 10 2
      vertex 5 3 5
      vertex 15 10 2
    endloop
  endfacet
  facet normal -0.707107 0 0.707107
    outer loop
      vertex 0 0 2
      vertex 3 3 5
      vertex 0 10 2
    endloop
  endfacet
  facet normal 0 -0 1
    outer loop
      vertex 5 2 5
      vertex 5 3 5
      vertex 3 2 5
    endloop
  endfacet
  facet normal 0.287348 0 0.957826
    outer loop
      vertex 15 0 2
      vertex 5 3 5
      vertex 5 2 5
    endloop
  endfacet
endsolid OpenSCAD_Model
