solid OpenSCAD_Model
  facet normal 0 0 1
    outer loop
      vertex 1 1 5.01
      vertex 3 2 5.01
      vertex 1 2 5.01
    endloop
  endfacet
  facet normal 0 1 0
    outer loop
      vertex 0 10 0
      vertex 0 10 0.01
      vertex 15 10 0
    endloop
  endfacet
  facet normal 1 0 0
    outer loop
      vertex 15 0 0
      vertex 15 10 0
      vertex 15 0 0.01
    endloop
  endfacet
  facet normal 0 -0.980581 0.196116
    outer loop
      vertex 15 0 0.01
      vertex 3 1 5.01
      vertex 0 0 0.01
    endloop
  endfacet
  facet normal 0 1 -0
    outer loop
      vertex 15 10 0
      vertex 0 10 0.01
      vertex 15 10 0.01
    endloop
  endfacet
  facet normal 0 0.529999 0.847998
    outer loop
      vertex 3 2 5.01
      vertex 0 10 0.01
      vertex 1 2 5.01
    endloop
  endfacet
  facet normal 0 0 -1
    outer loop
      vertex 0 0 0
      vertex 15 10 0
      vertex 15 0 0
    endloop
  endfacet
  facet normal 0 0 -1
    outer loop
      vertex 0 10 0
      vertex 15 10 0
      vertex 0 0 0
    endloop
  endfacet
  facet normal 0.384615 0 0.923077
    outer loop
      vertex 15 10 0.01
      vertex 3 2 5.01
      vertex 15 0 0.01
    endloop
  endfacet
  facet normal 0 -0.980581 0.196116
    outer loop
      vertex 0 0 0.01
      vertex 3 1 5.01
      vertex 1 1 5.01
    endloop
  endfacet
  facet normal -0.980581 0 0.196116
    outer loop
      vertex 1 1 5.01
      vertex 0 10 0.01
      vertex 0 0 0.01
    endloop
  endfacet
  facet normal -0.980581 0 0.196116
    outer loop
      vertex 1 2 5.01
      vertex 0 10 0.01
      vertex 1 1 5.01
    endloop
  endfacet
  facet normal 0 -1 -0
    outer loop
      vertex 15 0 0.01
      vertex 0 0 0
      vertex 15 0 0
    endloop
  endfacet
  facet normal 0 -1 0
    outer loop
      vertex 0 0 0.01
      vertex 0 0 0
      vertex 15 0 0.01
    endloop
  endfacet
  facet normal 0 0.529999 0.847998
    outer loop
      vertex 15 10 0.01
      vertex 0 10 0.01
      vertex 3 2 5.01
    endloop
  endfacet
  facet normal 1 -0 0
    outer loop
      vertex 15 0 0.01
      vertex 15 10 0
      vertex 15 10 0.01
    endloop
  endfacet
  facet normal 0 -0 1
    outer loop
      vertex 3 1 5.01
      vertex 3 2 5.01
      vertex 1 1 5.01
    endloop
  endfacet
  facet normal 0.384615 0 0.923077
    outer loop
      vertex 15 0 0.01
      vertex 3 2 5.01
      vertex 3 1 5.01
    endloop
  endfacet
  facet normal -1 0 0
    outer loop
      vertex 0 0 0
      vertex 0 10 0.01
      vertex 0 10 0
    endloop
  endfacet
  facet normal -1 0 0
    outer loop
      vertex 0 0 0.01
      vertex 0 10 0.01
      vertex 0 0 0
    endloop
  endfacet
endsolid OpenSCAD_Model
